<svg width="20" height="20" viewBox="0 0 20 20" fill="none" xmlns="http://www.w3.org/2000/svg">
<path fill-rule="evenodd" clip-rule="evenodd" d="M14.6526 10.5862H19.5425V12.2162H14.6526V10.5862Z" fill="white"/>
<path fill-rule="evenodd" clip-rule="evenodd" d="M-0.000244141 10.5862H4.88115V12.2162H-0.000244141V10.5862Z" fill="white"/>
<path fill-rule="evenodd" clip-rule="evenodd" d="M10.7389 5.00376C10.0154 4.8271 9.25742 4.85206 8.54718 5.07592C7.83694 5.29978 7.20163 5.714 6.71025 6.27356C6.21888 6.83312 5.89024 7.51663 5.76003 8.24984L5.75916 8.25474L5.75823 8.25963C5.71499 8.48696 5.6942 8.718 5.69615 8.94939L5.69618 8.95284V13.8511L5.69612 13.856C5.69336 14.0855 5.71399 14.3146 5.75768 14.5399L5.75958 14.5498L5.76125 14.5596C5.92104 15.5075 6.41148 16.3682 7.14554 16.9889C7.8796 17.6095 8.8098 17.9501 9.77108 17.9501C10.7324 17.9501 11.6626 17.6095 12.3966 16.9889C13.1305 16.3683 13.6209 15.5079 13.7808 14.5603C13.8198 14.3258 13.8388 14.0883 13.8375 13.8506L13.8375 13.8484V8.95813C13.8364 8.7285 13.8173 8.49932 13.7802 8.27269L13.7801 8.27165L13.7799 8.2706C13.6464 7.4395 13.2517 6.67247 12.6532 6.0806L12.6519 6.07929L12.6506 6.07798C12.1235 5.55195 11.4623 5.18042 10.7389 5.00376ZM8.05719 3.52135C9.05152 3.20794 10.1127 3.173 11.1255 3.42033C12.1377 3.66751 13.0629 4.18717 13.8006 4.9229C14.6442 5.75766 15.2005 6.83908 15.389 8.01082C15.4399 8.32224 15.4661 8.63719 15.4674 8.95273L15.4675 8.95451V13.8441C15.4691 14.1741 15.4427 14.5036 15.3885 14.829L15.3883 14.8298L15.3882 14.8306C15.1644 16.1584 14.4773 17.3641 13.449 18.2335C12.4207 19.103 11.1177 19.58 9.77108 19.58C8.42448 19.58 7.12142 19.103 6.09313 18.2335C5.06737 17.3662 4.3812 16.1644 4.15563 14.8404C4.09248 14.5112 4.06253 14.1766 4.06622 13.8415V8.95958C4.06362 8.62424 4.09371 8.28946 4.15605 7.95996C4.33893 6.93531 4.79866 5.98019 5.48549 5.19804C6.17341 4.41466 7.06285 3.83476 8.05719 3.52135Z" fill="white"/>
<path fill-rule="evenodd" clip-rule="evenodd" d="M-0.000240369 3.94703V3.25989H1.62972V3.94808L1.62972 3.94863C1.62853 4.82623 1.97144 5.6693 2.58481 6.29692C2.89803 6.61457 3.27121 6.86688 3.6827 7.03921C4.09453 7.21169 4.53653 7.30062 4.98302 7.30083C4.98313 7.30083 4.98323 7.30083 4.98333 7.30083H14.5612L14.5634 7.30084C15.4486 7.3056 16.2997 6.96018 16.9311 6.33999C17.5587 5.71187 17.9117 4.86041 17.9123 3.97237V3.25989H19.5423V3.97362C19.5413 5.29488 19.0156 6.56164 18.0808 7.4954L18.0786 7.49758L18.0764 7.49974C17.1383 8.42281 15.8731 8.93724 14.557 8.93079H4.98302L4.98271 8.93079C4.32013 8.93054 3.66421 8.7986 3.05306 8.54265C2.44191 8.2867 1.88772 7.91184 1.4227 7.43985L1.42167 7.4388L1.42065 7.43776C0.508306 6.50505 -0.00184451 5.25174 -0.000240369 3.94703Z" fill="white"/>
<path fill-rule="evenodd" clip-rule="evenodd" d="M16.8785 16.4182C16.2682 15.8114 15.4432 15.4698 14.5825 15.4676L14.5867 13.8377C15.8771 13.841 17.114 14.3533 18.0288 15.2634L18.0296 15.2641L18.0977 15.3323C18.0979 15.3324 18.098 15.3326 18.0981 15.3327C18.0981 15.3327 18.0982 15.3328 18.0982 15.3328C18.5511 15.785 18.9103 16.3222 19.1552 16.9134C19.4001 17.5047 19.5259 18.1385 19.5254 18.7785C19.5254 18.7786 19.5254 18.7787 19.5254 18.7787C19.5254 18.7789 19.5254 18.7791 19.5254 18.7792L19.5254 19.5425H17.8955V18.7781L17.8955 18.7778C17.8958 18.3521 17.8122 17.9305 17.6493 17.5372C17.4864 17.1439 17.2474 16.7866 16.9462 16.4859L16.8792 16.4189C16.879 16.4187 16.8788 16.4185 16.8785 16.4182Z" fill="white"/>
<path fill-rule="evenodd" clip-rule="evenodd" d="M4.95917 15.4676C4.52796 15.4685 4.10126 15.5553 3.70402 15.7231C3.30678 15.8908 2.94699 16.1361 2.64569 16.4446L2.64234 16.448L2.54919 16.5412C1.95958 17.1467 1.62962 17.9586 1.62972 18.8039V19.5425H-0.000244119V18.8041C-0.000244119 18.804 -0.000244119 18.804 -0.000244119 18.804C-0.000363618 17.5315 0.49723 16.3095 1.38619 15.3991L1.38958 15.3957L1.48316 15.3021C1.93519 14.8402 2.47457 14.4729 3.06993 14.2215C3.66683 13.9695 4.308 13.839 4.95594 13.8377L4.95917 15.4676Z" fill="white"/>
<path fill-rule="evenodd" clip-rule="evenodd" d="M8.95605 18.7275V8.1413H10.586V18.7275H8.95605Z" fill="white"/>
<path fill-rule="evenodd" clip-rule="evenodd" d="M14.6526 8.95628H4.88135V7.32632H14.6526V8.95628Z" fill="white"/>
<path fill-rule="evenodd" clip-rule="evenodd" d="M11.7812 2.10736C11.4755 1.80169 11.061 1.62996 10.6287 1.62996V0C11.4932 0 12.3224 0.343455 12.9338 0.954809C13.5451 1.56616 13.8886 2.39534 13.8886 3.25992V5.32284H12.2586V3.25992C12.2586 2.82763 12.0869 2.41304 11.7812 2.10736Z" fill="white"/>
<path fill-rule="evenodd" clip-rule="evenodd" d="M8.93923 1.6299C8.50989 1.63437 8.09965 1.80807 7.79764 2.11327C7.49562 2.41846 7.32623 2.8305 7.32625 3.25986V5.32282H5.69629V3.25995C5.69629 3.25994 5.69629 3.25992 5.69629 3.25991C5.69625 2.40119 6.03504 1.57714 6.63906 0.966762C7.24309 0.356376 8.06357 0.00897566 8.92225 3.05176e-05L8.93923 1.6299Z" fill="white"/>
</svg>
